<svg t="1611135742745" class="icon" viewBox="0 0 1024 1024" version="1.1" xmlns="http://www.w3.org/2000/svg" p-id="1132" width="200" height="200"><path d="M869.065302 152.648632l-715.495694 0c-49.195445 0-89.436962 40.532135-89.436962 90.085738l0 540.501124c0 49.548486 40.241516 90.085738 89.436962 90.085738l715.495694 0c49.196469 0 89.436962-40.537252 89.436962-90.085738L958.502263 242.73437C958.502263 193.180767 918.260747 152.648632 869.065302 152.648632L869.065302 152.648632 869.065302 152.648632zM869.065302 332.819085l-357.747847 225.208205-357.747847-225.208205 0-90.085738 357.747847 225.208205 357.747847-225.208205L869.065302 332.819085 869.065302 332.819085 869.065302 332.819085zM869.065302 332.819085" p-id="1133" fill="#dbdbdb"></path></svg>